<svg width="14" height="12" viewBox="0 0 14 12" fill="none" xmlns="http://www.w3.org/2000/svg">
<path fill-rule="evenodd" clip-rule="evenodd" d="M7 3.8125C7.24162 3.8125 7.4375 4.00838 7.4375 4.25V7.16667C7.4375 7.40829 7.24162 7.60417 7 7.60417C6.75838 7.60417 6.5625 7.40829 6.5625 7.16667V4.25C6.5625 4.00838 6.75838 3.8125 7 3.8125Z" fill="#AB0C00"/>
<path fill-rule="evenodd" clip-rule="evenodd" d="M7.00024 0.949829C6.53366 0.949829 5.9691 1.27002 5.49285 2.12887L1.95786 8.48718C1.51424 9.28729 1.53321 9.91839 1.77098 10.3235C2.0085 10.7281 2.54927 11.0517 3.46524 11.0517H7.00024C7.02463 11.0517 7.04855 11.0537 7.07186 11.0575H10.5352C11.4478 11.0575 11.9891 10.7342 12.2275 10.3289C12.466 9.92356 12.4859 9.29252 12.0426 8.49302L8.50783 2.12923C8.03158 1.27038 7.46681 0.949829 7.00024 0.949829ZM6.92862 11.9267H3.46524C2.35704 11.9267 1.46281 11.527 1.01637 10.7664C0.570186 10.0063 0.656237 9.03029 1.19262 8.06289L4.72763 1.70454C4.7277 1.70441 4.72755 1.70467 4.72763 1.70454C5.2897 0.691121 6.09609 0.0748291 7.00024 0.0748291C7.90439 0.0748291 8.71057 0.690743 9.27265 1.70417L10.9876 4.79001L12.8077 8.06852C13.3445 9.03651 13.4287 10.0128 12.9817 10.7726C12.5347 11.5325 11.641 11.9325 10.5352 11.9325H7.00024C6.97585 11.9325 6.95192 11.9305 6.92862 11.9267Z" fill="#AB0C00"/>
<path fill-rule="evenodd" clip-rule="evenodd" d="M6.41357 8.91671C6.41357 8.59454 6.67474 8.33337 6.99691 8.33337H7.00215C7.32431 8.33337 7.58548 8.59454 7.58548 8.91671C7.58548 9.23887 7.32431 9.50004 7.00215 9.50004H6.99691C6.67474 9.50004 6.41357 9.23887 6.41357 8.91671Z" fill="#AB0C00"/>
</svg>
